<svg width="25" height="25" viewBox="0 0 25 25" fill="none" xmlns="http://www.w3.org/2000/svg">
<path d="M14.9999 21C15.5608 21 15.6033 20.3985 15.9999 20C16.3965 19.6015 16.9999 19.5636 16.9999 19C16.9999 18.4364 16.3965 17.3985 15.9999 17C15.6033 16.6015 15.5608 17 14.9999 17C14.439 17 13.3965 16.6015 12.9999 17C12.6033 17.3985 12.9999 18.4364 12.9999 19C12.9999 19.5636 12.6033 19.6015 12.9999 20C13.3965 20.3985 14.439 21 14.9999 21ZM6.99989 21C7.56077 21 8.60329 20.3985 8.99989 20C9.39649 19.6015 8.99989 19.5636 8.99989 19C8.99989 18.4364 9.39649 17.3985 8.99989 17C8.60329 16.6015 7.56077 17 6.99989 17C6.43901 17 6.39649 16.6015 5.99989 17C5.60329 17.3985 4.99989 18.4364 4.99989 19C4.99989 19.5636 5.60329 19.6015 5.99989 20C6.39649 20.3985 6.43901 21 6.99989 21ZM20.9999 5.99998C21.2639 5.99142 21.8162 6.19063 21.9999 5.99998C22.1836 5.80933 21.9999 5.26536 21.9999 4.99998C21.9999 4.7346 22.1836 4.19063 21.9999 3.99998C21.8162 3.80933 21.2639 4.00853 20.9999 3.99998H19.9999C19.0461 3.99998 18.2071 5.06498 17.9999 5.99998L15.9999 12C15.7926 12.935 15.9537 13 14.9999 13H6.99989L4.99989 6.99998H14.9999C15.2614 6.98799 15.8191 7.19015 15.9999 6.99998C16.1807 6.80981 15.9999 6.263 15.9999 5.99998C15.9999 5.73696 16.1807 5.19015 15.9999 4.99998C15.8191 4.80981 15.2614 5.01197 14.9999 4.99998H4.99989C4.69078 4.99989 4.27772 4.86381 3.99989 4.99998C3.72206 5.13614 3.19012 5.75516 2.99989 5.99998C2.80966 6.2448 3.06396 6.69612 2.99989 6.99998C2.93582 7.30384 2.92482 7.69867 2.99989 7.99998L4.99989 14C5.10981 14.4422 4.64236 14.7195 4.99989 15C5.35742 15.2805 6.54628 15.0001 6.99989 15H14.9999C15.9253 15.0001 16.278 14.5818 16.9999 14C17.7218 13.4181 17.7992 12.9078 17.9999 12L19.9999 5.99998H20.9999Z" fill="white"/>
</svg>
