<svg width="17" height="17" viewBox="0 0 17 17" fill="none" xmlns="http://www.w3.org/2000/svg">
<path d="M10.9918 12.1333L14.8692 16.0107C14.871 16.0403 14.8851 16.0607 14.8932 16.0702C14.9019 16.0805 14.9109 16.087 14.9158 16.0902C14.9212 16.0938 14.9262 16.0964 14.9298 16.0981C14.9368 16.1015 14.9435 16.1039 14.9482 16.1055C14.9506 16.1063 14.953 16.107 14.9553 16.1077C14.9575 16.1089 14.9597 16.11 14.9619 16.1112C14.9664 16.1134 14.9728 16.1164 14.9802 16.119C14.9839 16.1203 14.9893 16.122 14.9957 16.1233C15.0014 16.1245 15.0123 16.1263 15.0258 16.1252C15.0378 16.1242 15.0609 16.1201 15.0825 16.1021C15.1031 16.1028 15.1266 16.1036 15.1524 16.1045C15.2467 16.1078 15.3719 16.1121 15.5007 16.1149C15.6136 16.1174 15.7275 16.1187 15.8198 16.1168C15.8612 16.116 15.8993 16.1144 15.9316 16.112C15.9359 16.1144 15.9402 16.1165 15.9443 16.1181C15.9482 16.1202 15.9522 16.1221 15.9565 16.1237C15.986 16.135 16.0117 16.1295 16.024 16.1255C16.0369 16.1214 16.0463 16.1156 16.0511 16.1123C16.0565 16.1086 16.0608 16.105 16.0638 16.1024C16.0696 16.0972 16.0744 16.092 16.0777 16.0881C16.0793 16.0863 16.0809 16.0843 16.0824 16.0824C16.0843 16.0809 16.0862 16.0793 16.0881 16.0777C16.0919 16.0744 16.0971 16.0696 16.1024 16.0638C16.105 16.0608 16.1086 16.0565 16.1123 16.0511C16.1155 16.0463 16.1213 16.0369 16.1255 16.024C16.1294 16.0117 16.135 15.986 16.1237 15.9565C16.122 15.9523 16.1202 15.9483 16.1181 15.9444C16.1164 15.9403 16.1144 15.936 16.1119 15.9317C16.1144 15.8994 16.1159 15.8612 16.1168 15.8198C16.1187 15.7275 16.1174 15.6136 16.1149 15.5008C16.112 15.3719 16.1077 15.2468 16.1044 15.1524C16.1036 15.1266 16.1027 15.1031 16.1021 15.0825C16.12 15.0609 16.1241 15.0378 16.1251 15.0258C16.1262 15.0124 16.1244 15.0015 16.1233 14.9958C16.122 14.9893 16.1203 14.984 16.119 14.9803C16.1164 14.9729 16.1134 14.9665 16.1111 14.962C16.11 14.9598 16.1088 14.9576 16.1077 14.9554C16.107 14.953 16.1062 14.9506 16.1055 14.9483C16.1039 14.9435 16.1015 14.9369 16.0981 14.9298C16.0964 14.9262 16.0938 14.9213 16.0902 14.9158C16.087 14.9109 16.0805 14.902 16.0702 14.8932C16.0607 14.8852 16.0403 14.871 16.0106 14.8692L12.1332 10.9918C12.2617 10.8277 12.3937 10.665 12.5255 10.5025C12.8799 10.0654 13.2329 9.6301 13.5129 9.17698C13.9152 8.52622 14.1781 7.82342 14.0995 6.9906C13.9456 5.359 13.297 4.01127 12.0661 2.92502C11.4511 2.38228 10.5947 1.86439 9.68944 1.48827C8.78499 1.11246 7.82291 0.874473 6.99686 0.900045C5.34712 0.951115 4.08015 1.77941 2.92928 2.92925C1.77726 4.08004 0.952273 5.34535 0.900008 6.99683C0.873835 7.82386 1.11175 8.78559 1.48767 9.68965C1.8639 10.5945 2.38209 11.4505 2.92495 12.0661C4.01156 13.2985 5.35827 13.9465 6.99062 14.0996C7.82369 14.1777 8.52664 13.9156 9.17746 13.5138C9.63414 13.2318 10.0724 12.8759 10.5127 12.5183C10.6718 12.389 10.8312 12.2596 10.9918 12.1333ZM10.9298 4.07127C11.1391 4.27724 11.3218 4.61675 11.4849 4.98828C11.5657 5.17244 11.6404 5.36133 11.7106 5.54137C11.7224 5.57163 11.734 5.60167 11.7456 5.63141C11.8024 5.77786 11.8565 5.91707 11.9078 6.03882C11.968 6.18162 11.9944 6.26823 12.0038 6.32773C12.0123 6.38204 12.0067 6.41443 11.995 6.45177C11.9919 6.4618 11.9872 6.47497 11.9816 6.49057C11.9682 6.52823 11.9497 6.58007 11.936 6.63637C11.9149 6.72336 11.8993 6.83643 11.9 7.0004C11.9008 7.20843 11.9272 7.43882 11.9534 7.66714C11.9673 7.78865 11.9811 7.90956 11.991 8.02621C12.0204 8.37258 12.0175 8.69478 11.9075 8.96193C11.8618 9.07298 11.8144 9.19514 11.7645 9.32392C11.6803 9.54123 11.5887 9.77739 11.4854 10.0108C11.3214 10.3814 11.1373 10.7211 10.9292 10.9293C10.7212 11.1375 10.3815 11.3215 10.0108 11.4855C9.77794 11.5885 9.54252 11.6797 9.32577 11.7638C9.1963 11.8139 9.07348 11.8616 8.96186 11.9075C8.69485 12.0175 8.3726 12.0205 8.02617 11.9911C7.90947 11.9812 7.7885 11.9673 7.66695 11.9534C7.43864 11.9272 7.20828 11.9008 7.00037 11.9C6.83645 11.8993 6.72339 11.9149 6.6364 11.9361C6.58013 11.9498 6.52828 11.9683 6.4906 11.9817C6.47498 11.9873 6.46179 11.992 6.45174 11.9951C6.41436 12.0067 6.38195 12.0123 6.32763 12.0038C6.26813 11.9945 6.18154 11.968 6.0388 11.9079C5.91662 11.8563 5.77682 11.802 5.62975 11.7449C5.60056 11.7336 5.57108 11.7222 5.5414 11.7106C5.36135 11.6405 5.17244 11.5658 4.98825 11.4849C4.61666 11.3219 4.27712 11.1392 4.07126 10.9299C3.65157 10.5031 3.40519 9.84074 3.26594 9.11641C3.12718 8.39466 3.09741 7.62595 3.09996 7.0004C3.10251 6.37324 3.1307 5.85725 3.26497 5.3896C3.39832 4.92509 3.63779 4.50376 4.07068 4.07069C4.50356 3.63765 4.92499 3.39819 5.3896 3.26488C5.85736 3.13065 6.37344 3.10255 7.00037 3.1C7.62567 3.09745 8.39446 3.12713 9.11633 3.26585C9.84076 3.40506 10.5033 3.65144 10.9298 4.07127Z" fill="white" stroke="white" stroke-width="0.2"/>
</svg>
